<svg width="39" height="39" viewBox="0 0 39 39" fill="none" xmlns="http://www.w3.org/2000/svg">
<path d="M12.0452 31.9879C10.7284 30.8092 10.7284 28.8983 12.0452 27.7196L17.6808 22.6748C19.1358 23.5896 21.1926 23.4371 22.5341 22.2364C23.8755 21.0356 24.0459 19.1944 23.024 17.8919L30.7774 10.9514L37.5892 17.049C39.4702 18.7327 39.4702 21.4627 37.5892 23.1464L19.8787 39L12.0452 31.9879Z" fill="#2D696A"/>
<path d="M26.9547 7.01214C28.2715 8.19079 28.2715 10.1017 26.9547 11.2804L21.3191 16.3252C19.8641 15.4104 17.8073 15.5629 16.4659 16.7636C15.1244 17.9643 14.9541 19.8056 15.976 21.1081L8.2225 28.0486L1.41076 21.951C-0.470252 20.2672 -0.470252 17.5373 1.41076 15.8536L19.1213 0L26.9547 7.01214Z" fill="#2D696A"/>
</svg>
