<svg width="375" height="453" viewBox="0 0 375 453" fill="none" xmlns="http://www.w3.org/2000/svg">
<g opacity="0.08">
<path d="M109.749 370.952C96.0804 357.284 96.0804 335.123 109.749 321.454L168.251 262.952C183.356 273.56 204.706 271.792 218.631 257.868C232.556 243.943 234.325 222.592 223.717 207.487L304.203 127L374.914 197.711C394.44 217.237 394.44 248.895 374.914 268.421L191.066 452.269L109.749 370.952Z" fill="#2D696A"/>
<path d="M264.52 81.3173C278.189 94.9856 278.189 117.146 264.52 130.815L206.018 189.317C190.914 178.709 169.563 180.477 155.638 194.401C141.713 208.326 139.944 229.678 150.552 244.783L70.066 325.269L-0.644659 254.558C-20.1709 235.032 -20.1709 203.374 -0.644659 183.848L183.203 8.10623e-06L264.52 81.3173Z" fill="#2D696A"/>
</g>
</svg>
