<svg width="47" height="50" viewBox="0 0 47 50" fill="none" xmlns="http://www.w3.org/2000/svg">
<path d="M14.516 41.0101C12.9291 39.499 12.9291 37.049 14.516 35.5379L21.3076 29.0703C23.0611 30.243 25.5398 30.0476 27.1564 28.5082C28.773 26.9688 28.9784 24.6082 27.7469 22.9383L37.0907 14.0403L45.2998 21.8576C47.5666 24.0163 47.5666 27.5162 45.2998 29.6749L23.9563 50L14.516 41.0101Z" fill="#2D696A"/>
<path d="M32.4839 8.98993C34.0708 10.501 34.0708 12.9509 32.4839 14.4621L25.6922 20.9297C23.9388 19.7569 21.4601 19.9524 19.8435 21.4917C18.2269 23.0312 18.0216 25.3917 19.2531 27.0617L9.90916 35.9597L1.70014 28.1423C-0.566714 25.9837 -0.566714 22.4837 1.70014 20.3251L23.0436 0L32.4839 8.98993Z" fill="#2D696A"/>
</svg>
